<svg xmlns="http://www.w3.org/2000/svg" width="26" height="24" fill="none"><path d="M 21.51 13.183 C 22.714 13.183 23.307 14.647 22.443 15.485 L 14.48 23.207 C 13.956 23.715 13.254 24 12.523 24 L 3.307 24 C 2.103 24 1.51 22.536 2.374 21.698 L 10.336 13.976 C 10.861 13.467 11.563 13.183 12.293 13.183 Z" fill="rgba(0,255,178,0.8)"></path><path d="M 21.772 6.479 C 22.975 6.479 23.569 7.943 22.704 8.782 L 14.859 16.39 C 14.26 16.971 13.457 17.297 12.621 17.297 L 3.568 17.297 C 2.365 17.297 1.771 15.833 2.635 14.995 L 10.598 7.272 C 11.123 6.764 11.824 6.479 12.555 6.479 Z" fill="rgba(0,255,178,0.8)"></path><path d="M 21.51 0 C 22.714 0 23.307 1.464 22.443 2.302 L 14.48 10.024 C 13.956 10.533 13.254 10.817 12.523 10.817 L 3.307 10.817 C 2.103 10.817 1.51 9.353 2.374 8.515 L 10.336 0.793 C 10.861 0.284 11.563 0 12.293 0 Z" fill="rgba(0,255,178,0.8)"></path></svg>